<svg width="201" height="49" viewBox="0 0 201 49" fill="none" xmlns="http://www.w3.org/2000/svg">
  <path d="M27.5505 42.8426C26.9259 42.597 25.8849 42.5357 25 43.395C24.1151 42.5357 23.074 42.597 22.4494 42.8426C21.9289 43.0881 21.5125 43.2109 20.7317 43.2109C21.5125 45.0524 23.1261 46.3414 25 46.3414C26.8739 46.3414 28.4875 45.0524 29.2683 43.2109C28.4875 43.2109 28.0711 43.0267 27.5505 42.8426Z" fill="#D7C378"/>
  <path d="M25 0C11.2165 0 0 11.0488 0 24.6941C0 36.4058 8.20312 46.184 19.2522 48.7805C10.4911 44.14 6.91964 33.4779 11.1607 24.5836C11.8304 28.1192 14.1741 31.2681 17.6339 32.8702C13.1138 22.4291 16.4621 10.1097 25.7812 3.31464C23.9397 9.50198 26.7299 15.1921 32.8125 19.5011C39.7321 24.4179 40.0112 34.4723 33.9286 39.8862C36.3281 39.3338 38.6161 38.0079 40.2902 35.9639C39.2299 41.2673 35.8817 46.0735 30.7478 48.7805C41.7969 46.2393 50 36.4058 50 24.6941C50 11.0488 38.7835 0 25 0Z" fill="#D7C378"/>
  <path d="M197.9 20.9398V25.5398C196.9 24.8398 195.6 24.6398 194.5 23.9398C193.6 23.4398 193.3 22.4398 193.3 21.4398V17.2398H191.1V21.4398C191.1 22.8398 191.5 24.3398 192.7 25.2398C193.5 25.8398 194.4 26.1398 195.3 26.4398C196.1 26.7398 197 27.0398 197.5 27.7398C197.9 28.2398 198 28.8398 198 29.5398V30.8398H200.1V20.9398H197.9ZM182.6 24.6398C183.1 24.0398 183.6 23.4398 183.9 22.7398C184.2 22.0398 184.3 21.3398 184.2 20.6398C184 19.2398 183 18.0398 181.7 17.5398C180.4 16.9398 178.7 16.9398 177.4 17.6398C176.1 18.2398 175.2 19.5398 175.1 20.9398C175 22.4398 175.7 23.7398 176.9 24.6398L178.1 23.1398C177.7 22.7398 177.3 22.2398 177.2 21.6398C177.1 21.0398 177.2 20.5398 177.6 20.0398C178.3 19.1398 179.7 18.8398 180.8 19.3398C181.3 19.6398 181.8 20.0398 181.9 20.5398C182.1 21.1398 182 21.7398 181.8 22.2398C181.5 22.7398 181.2 23.2398 180.8 23.7398C179.3 25.5398 177.9 27.2398 176.4 29.0398C175.9 29.6398 175.4 30.3398 174.8 30.9398H184.6V29.0398H179L182.6 24.6398ZM166.1 26.0398C165.3 27.9398 163.2 29.2398 161.1 29.0398C159 28.9398 157.2 27.4398 156.6 25.5398C156 23.5398 156.7 21.3398 158.4 20.0398C160.1 18.7398 162.5 18.7398 164.3 19.9398C166.3 21.2398 167.1 23.8398 166.1 26.0398ZM166.6 19.0398C164.4 16.9398 161 16.4398 158.3 17.6398C155.5 18.8398 153.9 21.7398 154.1 24.6398C154.4 27.5398 156.6 30.0398 159.5 30.7398C162.4 31.4398 165.7 30.4398 167.4 27.9398C169.2 25.5398 169.1 22.1398 167.3 19.7398C167.1 19.5398 166.8 19.3398 166.6 19.0398ZM146.1 24.6398C146.6 24.0398 147.1 23.4398 147.4 22.7398C147.7 22.0398 147.8 21.3398 147.7 20.6398C147.5 19.2398 146.5 18.0398 145.2 17.5398C143.9 16.9398 142.2 16.9398 140.9 17.6398C139.6 18.2398 138.7 19.5398 138.6 20.9398C138.5 22.4398 139.2 23.7398 140.4 24.6398L141.6 23.1398C141.2 22.7398 140.8 22.2398 140.7 21.6398C140.6 21.0398 140.7 20.5398 141.1 20.0398C141.8 19.1398 143.2 18.8398 144.3 19.3398C144.8 19.6398 145.3 20.0398 145.4 20.5398C145.6 21.1398 145.5 21.7398 145.3 22.2398C145 22.7398 144.7 23.2398 144.3 23.7398C142.8 25.5398 141.4 27.2398 139.9 29.0398L138.3 30.9398H148.1V29.0398H142.5L146.1 24.6398ZM125.9 24.3398C125.1 23.7398 124.2 23.4398 123.3 23.0398C122.4 22.7398 121.5 22.4398 120.8 21.7398C120.2 21.1398 120.4 20.1398 120.9 19.5398C121.5 18.9398 122.5 18.8398 123.3 19.0398C124.2 19.3398 124.8 20.1398 124.8 21.0398H127C127 20.0398 126.7 19.1398 126 18.3398C125.3 17.6398 124.4 17.2398 123.4 17.0398C122.4 16.9398 121.3 17.0398 120.4 17.5398C119.5 18.0398 118.8 18.7398 118.5 19.6398C118.2 20.5398 118.3 21.6398 118.7 22.4398C119.2 23.3398 120.1 23.8398 121.1 24.2398C122.1 24.6398 123.3 24.9398 124.3 25.5398C124.7 25.8398 125 26.1398 125.1 26.5398C125.2 26.9398 125.2 27.4398 125 27.8398C124.5 28.8398 123.2 29.1398 122.2 28.9398C121.1 28.7398 120.2 27.8398 120.2 26.6398H118.1C118.1 27.7398 118.5 28.7398 119.3 29.5398C120.1 30.3398 121.2 30.7398 122.4 30.8398C123.6 30.9398 124.8 30.7398 125.8 30.0398C126.7 29.4398 127.3 28.4398 127.4 27.4398C127.3 26.3398 126.9 25.1398 125.9 24.3398ZM109.2 20.3398V30.8398H111.4V20.0398C110.6 20.0398 109.9 20.1398 109.2 20.3398ZM109.2 19.1398C109.9 18.9398 110.6 18.8398 111.4 18.8398V17.2398H109.2V19.1398ZM96.8 19.2398C98.2 19.2398 99.6 19.9398 99.7 21.3398C99.8 22.0398 99.6 22.7398 99.1 23.2398C98.6 23.8398 97.8 24.1398 97.1 24.5398C96.2 24.9398 95.4 25.3398 94.6 26.0398V19.2398H96.8ZM100.1 25.7398C99.9 25.6398 99.6 25.5398 99.3 25.4398C100 25.0398 100.7 24.6398 101.2 24.0398C101.6 23.4398 101.9 22.8398 102 22.1398C102.2 20.6398 101.7 19.2398 100.4 18.3398C98.7 17.1398 96.6 17.3398 94.6 17.3398H92.5V30.9398H94.7V29.7398C94.7 28.8398 95.2 27.9398 96 27.5398C96.8 27.0398 97.9 27.0398 98.7 27.3398C99.5 27.7398 100.1 28.5398 100.2 29.3398C100.3 29.8398 100.2 30.4398 100.2 30.9398H102.4C102.4 30.2398 102.4 29.4398 102.3 28.7398C102 27.4398 101.2 26.3398 100.1 25.7398ZM83 25.7398C81.7 24.4398 79.8 24.0398 78 24.3398V22.1398C78 21.7398 78 21.3398 78.1 20.9398C78.3 20.1398 78.9 19.5398 79.7 19.3398C80.5 19.0398 81.4 19.2398 82.1 19.7398C82.8 20.2398 83.1 21.0398 83.1 21.8398V26.0398C83.1 25.8398 83 25.7398 83 25.7398ZM83 17.6398C81.1 16.6398 78.4 16.9398 77 18.5398C76.3 19.3398 75.9 20.3398 75.9 21.3398V30.8398H78V26.3398C79.3 26.1398 80.7 26.3398 81.8 27.0398C82.8 27.7398 83.2 28.7398 83.2 29.8398V30.7398H85.4V21.6398C85.3 20.0398 84.6 18.4398 83 17.6398ZM66.9 23.0398C66.4 23.7398 65.5 24.2398 64.7 24.6398C63.8 25.0398 62.9 25.5398 62.2 26.1398V19.3398H64.3C65.5 19.3398 66.7 19.6398 67.2 20.8398C67.4 21.4398 67.3 22.3398 66.9 23.0398ZM67 17.8398C66 17.3398 64.8 17.3398 63.7 17.3398H60V30.9398H62.2C62.2 30.1398 62.1 29.3398 62.5 28.6398C63 27.4398 64.3 26.9398 65.4 26.4398C66.6 25.8398 67.9 25.3398 68.7 24.2398C69.4 23.2398 69.6 22.0398 69.4 20.8398C69.2 19.4398 68.2 18.3398 67 17.8398Z" fill="#D7C378"/>
</svg>
