<svg width="28" height="28" viewBox="0 0 28 28" fill="none" xmlns="http://www.w3.org/2000/svg">
  <path d="M19.25 2.625C16.3618 2.625 14 4.98682 14 7.875C14 8.74316 14.335 9.62842 14.7656 10.6094C15.1963 11.5903 15.7397 12.6294 16.2969 13.5898C17.4111 15.5107 18.5391 17.1172 18.5391 17.1172L19.25 18.1562L19.9609 17.1172C19.9609 17.1172 21.0889 15.5107 22.2031 13.5898C22.7603 12.6294 23.3037 11.5903 23.7344 10.6094C24.165 9.62842 24.5 8.74316 24.5 7.875C24.5 4.98682 22.1382 2.625 19.25 2.625ZM10.4727 4.32031L3.5 7.30078V24.0898L10.5273 21.0547L17.5273 23.6797L24.5 20.6992V13.0703C23.9429 14.1401 23.3242 15.1655 22.75 16.0781V19.5508L18.375 21.4102V19.9883L17.0898 18.1289C16.9531 17.9307 16.7925 17.6948 16.625 17.4453V21.4922L11.375 19.5234V6.50781L12.332 6.86328C12.4175 6.27197 12.5713 5.70117 12.7969 5.16797L10.4727 4.32031ZM19.25 4.375C21.1914 4.375 22.75 5.93359 22.75 7.875C22.75 8.21338 22.5381 9.01318 22.1484 9.89844C21.7588 10.7837 21.2085 11.7886 20.6719 12.7148C19.9575 13.9453 19.6499 14.3828 19.25 14.9844C18.8501 14.3828 18.5425 13.9453 17.8281 12.7148C17.2915 11.7886 16.7412 10.7837 16.3516 9.89844C15.9619 9.01318 15.75 8.21338 15.75 7.875C15.75 5.93359 17.3086 4.375 19.25 4.375ZM9.625 6.5625V19.5508L5.25 21.4102V8.44922L9.625 6.5625ZM19.25 6.5625C18.5254 6.5625 17.9375 7.15039 17.9375 7.875C17.9375 8.59961 18.5254 9.1875 19.25 9.1875C19.9746 9.1875 20.5625 8.59961 20.5625 7.875C20.5625 7.15039 19.9746 6.5625 19.25 6.5625Z" fill="#818CF8"/>
</svg>
