<svg width="50" height="64" viewBox="0 0 50 64" fill="none" xmlns="http://www.w3.org/2000/svg">
<path d="M25 0C18.3719 0.00756217 12.0174 2.65899 7.33063 7.3726C2.64385 12.0862 0.00751913 18.4771 0 25.1431C0 46.6576 22.7273 62.9063 23.696 63.5864C24.0782 63.8556 24.5334 64 25 64C25.4666 64 25.9218 63.8556 26.304 63.5864C27.2727 62.9063 50 46.6576 50 25.1431C49.9925 18.4771 47.3561 12.0862 42.6694 7.3726C37.9826 2.65899 31.6281 0.00756217 25 0ZM25 16.0002C26.798 16.0002 28.5556 16.5364 30.0506 17.541C31.5456 18.5457 32.7108 19.9736 33.3989 21.6443C34.087 23.3149 34.267 25.1533 33.9162 26.9268C33.5655 28.7004 32.6996 30.3295 31.4282 31.6082C30.1569 32.8868 28.537 33.7576 26.7735 34.1104C25.0101 34.4632 23.1822 34.2821 21.5211 33.5901C19.8599 32.8981 18.4401 31.7262 17.4412 30.2227C16.4423 28.7191 15.9091 26.9514 15.9091 25.1431C15.9091 22.7182 16.8669 20.3927 18.5718 18.6781C20.2766 16.9634 22.5889 16.0002 25 16.0002Z" fill="#DC2626"/>
<circle cx="25" cy="24" r="19" fill="white"/>
<path d="M14.8105 19.4688L16.6855 23.4473L18.5723 19.4688H20.3418L17.5059 24.877V28H15.8711V24.877L13.0293 19.4688H14.8105ZM27.9297 23.5176V23.957C27.9297 24.6016 27.8438 25.1816 27.6719 25.6973C27.5 26.209 27.2559 26.6445 26.9395 27.0039C26.623 27.3633 26.2461 27.6387 25.8086 27.8301C25.3711 28.0215 24.8848 28.1172 24.3496 28.1172C23.8223 28.1172 23.3379 28.0215 22.8965 27.8301C22.459 27.6387 22.0801 27.3633 21.7598 27.0039C21.4395 26.6445 21.1914 26.209 21.0156 25.6973C20.8398 25.1816 20.752 24.6016 20.752 23.957V23.5176C20.752 22.8691 20.8398 22.2891 21.0156 21.7773C21.1914 21.2656 21.4375 20.8301 21.7539 20.4707C22.0703 20.1074 22.4473 19.8301 22.8848 19.6387C23.3262 19.4473 23.8105 19.3516 24.3379 19.3516C24.873 19.3516 25.3594 19.4473 25.7969 19.6387C26.2344 19.8301 26.6113 20.1074 26.9277 20.4707C27.248 20.8301 27.4941 21.2656 27.666 21.7773C27.8418 22.2891 27.9297 22.8691 27.9297 23.5176ZM26.3008 23.957V23.5059C26.3008 23.041 26.2578 22.6328 26.1719 22.2812C26.0859 21.9258 25.959 21.627 25.791 21.3848C25.623 21.1426 25.416 20.9609 25.1699 20.8398C24.9238 20.7148 24.6465 20.6523 24.3379 20.6523C24.0254 20.6523 23.748 20.7148 23.5059 20.8398C23.2676 20.9609 23.0645 21.1426 22.8965 21.3848C22.7285 21.627 22.5996 21.9258 22.5098 22.2812C22.4238 22.6328 22.3809 23.041 22.3809 23.5059V23.957C22.3809 24.418 22.4238 24.8262 22.5098 25.1816C22.5996 25.5371 22.7285 25.8379 22.8965 26.084C23.0684 26.3262 23.2754 26.5098 23.5176 26.6348C23.7598 26.7598 24.0371 26.8223 24.3496 26.8223C24.6621 26.8223 24.9395 26.7598 25.1816 26.6348C25.4238 26.5098 25.627 26.3262 25.791 26.084C25.959 25.8379 26.0859 25.5371 26.1719 25.1816C26.2578 24.8262 26.3008 24.418 26.3008 23.957ZM34.041 19.4688H35.6523V25.1348C35.6523 25.7871 35.5117 26.3359 35.2305 26.7812C34.9492 27.2227 34.5664 27.5566 34.082 27.7832C33.5977 28.0059 33.0469 28.1172 32.4297 28.1172C31.8047 28.1172 31.248 28.0059 30.7598 27.7832C30.2715 27.5566 29.8887 27.2227 29.6113 26.7812C29.334 26.3359 29.1953 25.7871 29.1953 25.1348V19.4688H30.8066V25.1348C30.8066 25.5332 30.873 25.8594 31.0059 26.1133C31.1387 26.3633 31.3262 26.5488 31.5684 26.6699C31.8105 26.791 32.0977 26.8516 32.4297 26.8516C32.7656 26.8516 33.0527 26.791 33.291 26.6699C33.5332 26.5488 33.7188 26.3633 33.8477 26.1133C33.9766 25.8594 34.041 25.5332 34.041 25.1348V19.4688Z" fill="black"/>
</svg>
