<svg width="23" height="29" viewBox="0 0 23 29" fill="none" xmlns="http://www.w3.org/2000/svg">
<path d="M11.5 0.9375C8.67477 0.940705 5.96617 2.06444 3.96843 4.06218C1.97069 6.05992 0.846955 8.76852 0.84375 11.5938C0.84375 20.7121 10.5312 27.5987 10.9442 27.8869C11.1071 28.001 11.3011 28.0622 11.5 28.0622C11.6989 28.0622 11.8929 28.001 12.0558 27.8869C12.4688 27.5987 22.1562 20.7121 22.1562 11.5938C22.153 8.76852 21.0293 6.05992 19.0316 4.06218C17.0338 2.06444 14.3252 0.940705 11.5 0.9375ZM11.5 7.71875C12.2664 7.71875 13.0156 7.94601 13.6528 8.37181C14.2901 8.7976 14.7867 9.40279 15.08 10.1109C15.3733 10.8189 15.4501 11.598 15.3005 12.3497C15.151 13.1014 14.782 13.7919 14.24 14.3338C13.6981 14.8757 13.0077 15.2448 12.256 15.3943C11.5043 15.5438 10.7252 15.4671 10.0171 15.1738C9.30904 14.8805 8.70385 14.3838 8.27806 13.7466C7.85226 13.1093 7.625 12.3602 7.625 11.5938C7.625 10.566 8.03326 9.58041 8.75996 8.85371C9.48666 8.12701 10.4723 7.71875 11.5 7.71875Z" fill="#DC2626"/>
</svg>
